# xmcd
#
# Track frame offsets:
#	150
#	12465
#	27773
#	52887
#	78436
#	107701
#	129814
#	172075
#	186643
#
# Disc length: 2849 seconds
#
# Revision: 0
# Processed by: cddbd v1.5.2PL0 Copyright (c) Steve Scherf et al.
# Submitted via: EasyCDDAExtractor 4.6.0.1
#
DISCID=6f0b1f09
DTITLE=David Hooten - Hootie's Blues
DYEAR=2003
DGENRE=blues
TTITLE0=Hootie's Blues
TTITLE1=Cherry Pink
TTITLE2=I Can't Get Started
TTITLE3=When Sunnie Gets Blue
TTITLE4=Misty
TTITLE5=A Child is Born
TTITLE6=What Are You Doing The Rest Of Your Life?
TTITLE7=Don't Get Around Much Anymore
TTITLE8=Somewhere Over The Rainbow
EXTD=
EXTT0=
EXTT1=
EXTT2=
EXTT3=
EXTT4=
EXTT5=
EXTT6=
EXTT7=
EXTT8=
PLAYORDER=
